<svg width="152" height="34" xmlns="http://www.w3.org/2000/svg" stroke-miterlimit="2" stroke-linejoin="round" fill-rule="evenodd">

 <g>
  <title>Layer 1</title>
  <path id="svg_1" fill-rule="nonzero" fill="#435ebe" d="m0,27.472c0,4.409 6.18,5.552 13.5,5.552c7.281,0 13.5,-1.103 13.5,-5.513s-6.179,-5.552 -13.5,-5.552c-7.281,0 -13.5,1.103 -13.5,5.513z"/>
  <path stroke="null" id="svg_5" d="m4.4205,20.08641c-0.0061,-5.24438 -0.01219,-10.48875 -0.01828,-15.73313c5.50335,0.06028 11.03004,-0.14279 16.51475,0.15478c2.67459,0.67969 2.28915,4.91083 2.24571,8.07117c-0.11733,2.38328 1.56268,7.10785 -2.80087,7.81799c-2.17546,0.00008 -2.18403,0.66538 -1.96197,1.86886c0.25769,1.80297 -0.4904,5.84183 -4.06418,3.28185l-9.91516,-5.46152l0,0zm16.8429,-1.71439c0.00884,-4.71402 -0.06492,-8.73576 -0.43003,-11.84163c-3.24397,-1.05645 -7.62748,-0.54232 -11.29785,-0.55838c-1.44282,0.50243 3.42259,2.17075 4.4545,2.81808c3.91749,1.39187 5.0863,3.92312 4.40982,6.78381c0,1.11279 0,2.22559 0,3.33839c0.72242,-0.00063 2.217,-0.2569 2.86356,-0.54027l0,0z" fill="#41bbdd"/>
  <text font-weight="bold" xml:space="preserve" text-anchor="start" font-family="'Oxanium'" font-size="24" stroke-width="0" id="svg_6" y="24.03385" x="32.23376" fill="#435ebe">SRS-NFEC</text>
 </g>
</svg>